# xmcd CD database file
#
# Track frame offsets:
#	150
#	13789
#	29015
#	43322
#	62373
#	76763
#	92982
#	107905
#	116067
#	130218
#	147735
#	160346
#	178652
#	190286
#	202276
#	219167
#	233669
#	253694
#
# Disc length: 3542 seconds
#
# Revision: 8
# Processed by: cddbd v1.4PL0 Copyright (c) Steve Scherf et al.
# Submitted via: CDex 1.50beta10
#
DISCID=0d0dd412
DTITLE=Various Artist - Prvni velky cesky country zpevnik V - Z
DYEAR=2002
DGENRE=Country
TTITLE0=Drobek - Vyrazim jeste dnes
TTITLE1=Fesaci - Vlakova balada
TTITLE2=Drobek - Volny jako ptak v oblacich
TTITLE3=J.Zoch /Vysocina
TTITLE4=Drobek - Vlak pulnocni
TTITLE5=P.Paskova - Whisky to je moje gusto
TTITLE6=Lava - Zatoka
TTITLE7=Drobek - Za chvili uz budu v dali
TTITLE8=J.Zoch - Zdam se ti lepsi nezli jsem
TTITLE9=N.Urbankova - Zavidim
TTITLE10=Drobek - Zradny banjo
TTITLE11=A-band - Zelene plane
TTITLE12=Harcovnici - Znama country
TTITLE13=Drobek - Zelena reka
TTITLE14=J.Zoch - Zlati uhori
TTITLE15=Drobek - Zlata horecka
TTITLE16=V.Martinova - Z knihy vazane ovci kuzi
TTITLE17=J.Vancura - Zvednete kotvy
EXTD=YEAR: 2002
EXTT0=
EXTT1=
EXTT2=
EXTT3=
EXTT4=
EXTT5=
EXTT6=
EXTT7=
EXTT8=
EXTT9=
EXTT10=
EXTT11=
EXTT12=
EXTT13=
EXTT14=
EXTT15=
EXTT16=
EXTT17=
PLAYORDER=
